<svg width="26" height="26" viewBox="0 0 26 26" fill="none" xmlns="http://www.w3.org/2000/svg">
<path d="M5.41663 13.823C5.41663 12.3521 5.41663 11.6166 5.71396 10.9701C6.01129 10.3237 6.56969 9.84505 7.68648 8.8878L8.76982 7.95923C10.7884 6.229 11.7977 5.36389 13 5.36389C14.2022 5.36389 15.2115 6.229 17.2301 7.95923L18.3134 8.8878C19.4302 9.84505 19.9886 10.3237 20.286 10.9701C20.5833 11.6166 20.5833 12.3521 20.5833 13.823V18.4167C20.5833 20.4595 20.5833 21.4809 19.9487 22.1155C19.3141 22.7501 18.2927 22.7501 16.25 22.7501H9.74996C7.70721 22.7501 6.68583 22.7501 6.05123 22.1155C5.41663 21.4809 5.41663 20.4595 5.41663 18.4167V13.823Z" stroke="white"/>
<path d="M15.7083 22.75V17.25C15.7083 16.6977 15.2606 16.25 14.7083 16.25H11.2916C10.7393 16.25 10.2916 16.6977 10.2916 17.25V22.75" stroke="white" stroke-linecap="round" stroke-linejoin="round"/>
</svg>
